<svg width="24" height="24" viewBox="0 0 24 24" fill="none" xmlns="http://www.w3.org/2000/svg">
  <path fill-rule="evenodd" clip-rule="evenodd" d="M12 2.75C6.89136 2.75 2.75 6.89136 2.75 12C2.75 17.1086 6.89137 21.25 12 21.25C17.1086 21.25 21.25 17.1086 21.25 12C21.25 11.5858 21.5858 11.25 22 11.25C22.4142 11.25 22.75 11.5858 22.75 12C22.75 17.937 17.937 22.75 12 22.75C6.06293 22.75 1.25 17.937 1.25 12C1.25 6.06294 6.06294 1.25 12 1.25C14.7937 1.25 17.339 2.31639 19.25 4.06269V2.5C19.25 2.08579 19.5858 1.75 20 1.75C20.4142 1.75 20.75 2.08579 20.75 2.5V6C20.75 6.41421 20.4142 6.75 20 6.75H16.5C16.0858 6.75 15.75 6.41421 15.75 6C15.75 5.58579 16.0858 5.25 16.5 5.25H18.3246C16.6699 3.69872 14.446 2.75 12 2.75Z" fill="white"/>
</svg>
